# AST/ASF file generated using VICON BodyLanguage
# -----------------------------------------------
:version 1.10
:name VICON
:units
  mass 1.0
  length 0.45
  angle deg
:documentation
   .ast/.asf automatically generated from VICON data using
   VICON BodyBuilder and BodyLanguage model FoxedUp or BRILLIANT.MOD
:root
   order TX TY TZ RX RY RZ
   axis XYZ
   position 0 0 0  
   orientation 0 0 0 
:bonedata
  begin
     id 1 
     name lhipjoint
     direction 0.521689 -0.742065 0.420928 
     length 2.47002 
     axis 0 0 0  XYZ
  end
  begin
     id 2 
     name lfemur
     direction 0.34202 -0.939693 0  
     length 7.24654  
     axis 0 0 20  XYZ
    dof rx ry rz
    limits (-160.0 20.0)
           (-70.0 70.0)
           (-60.0 70.0)
  end
  begin
     id 3 
     name ltibia
     direction 0.34202 -0.939693 0   
     length 8.04849   
     axis 0 0 20   XYZ
    dof rx
    limits (-10.0 170.0)
  end
  begin
     id 4 
     name lfoot
     direction 0.0745411 -0.2048 0.975961   
     length 1.72367   
     axis -90 7.62852e-016 20   XYZ
    dof rx rz
    limits (-45.0 90.0)
           (-70.0 20.0)
  end
  begin
     id 5 
     name ltoes
     direction 1.53556e-011 -4.21901e-011 1   
     length 0.87311   
     axis -90 7.62852e-016 20   XYZ
    dof rx
    limits (-90.0 20.0)
  end
  begin
     id 6 
     name rhipjoint
     direction -0.52849 -0.738415 0.418857   
     length 2.48223  
     axis 0 0 0  XYZ 
  end
  begin
     id 7 
     name rfemur
     direction -0.34202 -0.939693 0   
     length 7.15571   
     axis 0 0 -20   XYZ
    dof rx ry rz
    limits (-160.0 20.0)
           (-70.0 70.0)
           (-70.0 60.0)
  end
  begin
     id 8 
     name rtibia
     direction -0.34202 -0.939693 0   
     length 7.81659   
     axis 0 0 -20   XYZ
    dof rx
    limits (-10.0 170.0)
 end
 begin
     id 9 
     name rfoot
     direction -0.0917348 -0.252039 0.963359   
     length 1.84382  
     axis -90 -7.62852e-016 -20   XYZ
    dof rx rz
    limits (-45.0 90.0)
           (-20.0 70.0)
  end
  begin
     id 10 
     name rtoes
     direction -1.53551e-011 -4.21879e-011 1   
     length 0.927771   
     axis -90 -7.62852e-016 -20   XYZ
    dof rx
    limits (-90.0 20.0)
  end
  begin
     id 11 
     name lowerback
     direction 0.00583058 0.999822 0.0179296   
     length 2.1429   
     axis 0 0 0   XYZ
    dof rx ry rz
    limits (-20.0 45.0)
           (-30.0 30.0)
           (-30.0 30.0)
  end
  begin
     id 12 
     name upperback
     direction -0.0137999 0.999752 -0.0175071   
     length 2.14252   
     axis 0 0 0   XYZ
    dof rx ry rz
    limits (-20.0 45.0)
           (-30.0 30.0)
           (-30.0 30.0)
  end
  begin
     id 13 
     name thorax
     direction -0.0158036 0.99955 -0.0254909   
     length 2.1383   
     axis 0 0 0   XYZ
    dof rx ry rz
    limits (-20.0 45.0)
           (-30.0 30.0)
           (-30.0 30.0)
  end
  begin
     id 14 
     name lowerneck
     direction -0.0101179 0.999403 -0.0330262   
     length 1.65808   
     axis 0 0 0   XYZ
    dof rx ry rz
    limits (-20.0 45.0)
           (-30.0 30.0)
           (-30.0 30.0)
  end
  begin
     id 15 
     name upperneck
     direction 0.0497734 0.995978 -0.074501   
     length 1.5897   
     axis 0 0 0   XYZ
    dof rx ry rz
    limits (-20.0 45.0)
           (-30.0 30.0)
           (-30.0 30.0)
  end
  begin
     id 16
     name head
     direction 0.0189524 0.999519 -0.0245438  
     length 1.74024  
     axis 0 0 0   XYZ
    dof rx ry rz
    limits (-20.0 45.0)
           (-30.0 30.0)
           (-30.0 30.0)
  end
  begin
     id 17 
     name lclavicle
     direction 0.945604 0.324422 0.0241537  
     length 3.59089  
     axis 0 0 0   XYZ
    dof ry rz
    limits (-20.0 10.0)
           (0.0 20.0)
  end
  begin
     id 18 
     name lhumerus
     direction 1 -4.48964e-011 -2.63524e-027   
     length 5.2391   
     axis 180 -30 -90   XYZ
    dof rx ry rz
    limits (-60.0 90.0)
           (-90.0 90.0)
           (-90.0 90.0)
  end
  begin
     id 19
     name lradius
     direction 1 -4.48969e-011 3.86978e-028   
     length 3.31467   
     axis 180 -30 -90   XYZ
    dof rx
    limits (-10.0 170.0)
  end
  begin
     id 20
     name lwrist
     direction 1 -4.48963e-011 7.20928e-028   
     length 1.65734   
     axis -5.52449e-016 90 90   XYZ
    dof ry
    limits (-180.0 0.0)
 end
  begin
     id 21 
     name lhand
     direction 1 -4.48964e-011 1.44186e-027   
     length 0.9659   
     axis -9.20027e-016 90 90   XYZ
    dof rx rz
    limits (-90.0 90.0)
           (-45.0 45.0)
  end
  begin
     id 22 
     name lfingers
     direction 1 -4.48965e-011 2.88371e-027   
     length 0.778733   
     axis -1.84005e-015 90 90   XYZ
    dof rx
    limits (0.0 90.0)
  end
  begin
     id 23
     name lthumb
     direction 0.707107 -6.34931e-011 0.707107   
     length 1.11811   
     axis -90 45 2.85299e-015   XYZ
    dof rx rz
    limits (-45.0 45.0)
           (-45.0 45.0)
  end
  begin
     id 24 
     name rclavicle
     direction -0.923762 0.370785 0.0958234   
     length 3.54196  
     axis 0 0 0   XYZ 
    dof ry rz
    limits (-10.0 20.0)
           (-20.0 0.0)
  end
  begin
     id 25 
     name rhumerus
     direction -1 -4.48966e-011 1.18702e-017  
     length 5.30252   
     axis 180 30 90   XYZ
    dof rx ry rz
    limits (-90.0 60.0)
           (-90.0 90.0)
           (-90.0 90.0)
  end
  begin
     id 26 
     name rradius
     direction -1 -4.48966e-011 4.46736e-027   
     length 3.67875   
     axis 180 30 90   XYZ
    dof rx
    limits (-10.0 170.0)
  end
  begin
     id 27 
     name rwrist
     direction -1 -4.48966e-011 7.20928e-028   
     length 1.83937   
     axis -5.52449e-016 -90 -90   XYZ
    dof ry
    limits (-180.0 0.0)
  end
  begin
     id 28
     name rhand
     direction -1 -4.48973e-011 1.44186e-027   
     length 0.594811   
     axis -9.20027e-016 -90 -90   XYZ
    dof rx rz
    limits (-90.0 90.0)
           (-45.0 45.0)
  end
  begin
     id 29
     name rfingers
     direction -1 -4.48963e-011 2.88371e-027   
     length 0.479552   
     axis -1.84005e-015 -90 -90   XYZ
    dof rx
    limits (0.0 90.0)
  end
  begin
     id 30
     name rthumb
     direction -0.707107 -6.34932e-011 0.707107   
     length 0.688544   
     axis -90 -45 -2.85299e-015   XYZ
    dof rx rz
    limits (-45.0 45.0)
           (-45.0 45.0)
  end
:hierarchy
  begin
    root lhipjoint rhipjoint lowerback
    lhipjoint lfemur
    lfemur ltibia
    ltibia lfoot
    lfoot ltoes
    rhipjoint rfemur
    rfemur rtibia
    rtibia rfoot
    rfoot rtoes
    lowerback upperback
    upperback thorax
    thorax lowerneck lclavicle rclavicle
    lowerneck upperneck
    upperneck head
    lclavicle lhumerus
    lhumerus lradius
    lradius lwrist
    lwrist lhand lthumb
    lhand lfingers
    rclavicle rhumerus
    rhumerus rradius
    rradius rwrist
    rwrist rhand rthumb
    rhand rfingers
  end

#!OML:ASF E:\acrobat2\Project_11_07_03\Capture day 1\Session 1\Acrobat.ASF
:FULLY-SPECIFIED
:DEGREES
277
root 9.26781 18.2552 -33.3315 283.056 -83.3298 -278.782
lowerback -4.0911 -0.482761 4.03053
upperback -3.69809 -0.824066 0.18495
thorax -1.56585 -0.528982 -2.08889
lowerneck -0.577886 1.63058 -0.881012
upperneck -0.010994 2.17511 -1.80674
head 0.101238 1.08094 -0.395437
rclavicle -1.3418e-014 2.22639e-014
rhumerus -11.5952 -30.8982 -6.5483
rradius 20.2057
rwrist 17.763
rhand -6.65692 -50.3745
rfingers 7.12502
rthumb 19.2008 -79.4466
lclavicle -1.3418e-014 2.22639e-014
lhumerus 4.43807 9.53716 3.89929
lradius 21.543
lwrist 8.10764
lhand -8.19933 -5.4742
lfingers 7.12502
lthumb 17.717 23.7387
rfemur 7.78648 16.9625 9.87079
rtibia -2.8476
rfoot -26.8745 -29.9599
rtoes 9.34246
lfemur 2.00322 2.31699 -3.45542
ltibia 5.60778
lfoot -2.47959 4.0918
ltoes 56.3135
278
root 9.27603 18.259 -33.3545 284.523 -83.0752 -280.243
lowerback -4.05609 -0.53845 4.0233
upperback -3.66302 -0.895437 0.231624
thorax -1.55296 -0.562553 -2.03839
lowerneck -0.615229 1.71588 -1.2449
upperneck -0.163021 2.28822 -1.61505
head 0.0554069 1.13891 -0.279003
rclavicle -3.57812e-015 9.54166e-015
rhumerus -11.4796 -31.2541 -6.4695
rradius 20.2389
rwrist 17.7885
rhand -6.75822 -50.4735
rfingers 7.12502
rthumb 19.1033 -79.5553
lclavicle -3.57812e-015 9.54166e-015
lhumerus 4.44913 9.41535 3.88443
lradius 21.5695
lwrist 8.39751
lhand -8.15465 -5.31207
lfingers 7.12502
lthumb 17.76 23.8969
rfemur 7.96152 17.4202 9.86479
rtibia -3.00037
rfoot -27.6488 -30.2934
rtoes 11.0513
lfemur 1.87382 1.56602 -3.34627
ltibia 5.27237
lfoot -1.32449 5.10616
ltoes 56.3931
279
root 9.28416 18.2593 -33.3708 285.631 -82.5783 -281.338
lowerback -4.04675 -0.55406 3.91557
upperback -3.62258 -0.912424 0.113262
thorax -1.51747 -0.567964 -2.10056
lowerneck -0.677106 1.77656 -1.55994
upperneck -0.304615 2.36997 -1.34678
head 0.0158744 1.1815 -0.148222
rclavicle -2.18663e-015 2.06736e-014
rhumerus -11.6463 -31.6105 -6.31916
rradius 20.3503
rwrist 17.788
rhand -6.96332 -50.494
rfingers 7.12502
rthumb 18.9061 -79.5952
lclavicle -2.18663e-015 2.06736e-014
lhumerus 4.77043 9.89992 4.06835
lradius 21.4785
lwrist 8.09621
lhand -8.05852 -5.27229
lfingers 7.12502
lthumb 17.8525 23.9283
rfemur 8.13289 17.6317 9.45894
rtibia -3.21229
rfoot -28.27 -30.5219
rtoes 11.9007
lfemur 1.7508 0.73127 -3.58757
ltibia 4.83867
lfoot -0.511309 5.80098
ltoes 55.8921
280
root 9.29148 18.2576 -33.3841 286.765 -82.1182 -282.469
lowerback -4.00762 -0.606743 3.76385
upperback -3.60021 -0.975941 0.0921611
thorax -1.51758 -0.595822 -2.03845
lowerneck -0.706705 1.81576 -1.24823
upperneck -0.366602 2.41542 -2.07106
head 0.0152168 1.20209 -0.415928
rclavicle 6.65929e-015 0
rhumerus -11.6156 -31.7634 -6.18795
rradius 20.4561
rwrist 17.5739
rhand -7.0674 -50.4332
rfingers 7.12502
rthumb 18.806 -79.5441
lclavicle 6.65929e-015 0
lhumerus 4.89211 10.1347 4.24131
lradius 21.4422
lwrist 7.97465
lhand -8.15048 -5.26693
lfingers 7.12502
lthumb 17.764 23.9417
rfemur 8.33342 17.761 9.08076
rtibia -3.42629
rfoot -28.6587 -30.6799
rtoes 12.2626
lfemur 1.65335 -0.00428222 -3.81962
ltibia 4.44833
lfoot 0.0141154 6.07693
ltoes 54.9233
281
root 9.29911 18.2574 -33.3988 288.194 -81.9754 -283.927
lowerback -3.93717 -0.660594 3.85959
upperback -3.56223 -1.0456 0.229566
thorax -1.52151 -0.629976 -1.95163
lowerneck -0.66978 1.82912 -0.932624
upperneck -0.475734 2.42133 -2.90933
head -0.00884539 1.20325 -0.72375
rclavicle -3.97569e-015 1.59028e-015
rhumerus -11.4153 -31.8905 -6.04734
rradius 20.5302
rwrist 17.2735
rhand -7.02386 -50.5565
rfingers 7.12502
rthumb 18.8479 -79.6633
lclavicle -3.97569e-015 1.59028e-015
lhumerus 4.8095 9.99641 4.32852
lradius 21.4757
lwrist 8.09258
lhand -8.3509 -5.25025
lfingers 7.12502
lthumb 17.5712 23.9757
rfemur 8.54549 17.995 9.16925
rtibia -3.56599
rfoot -28.9176 -30.8563
rtoes 13.0539
lfemur 1.57387 -0.497131 -3.60714
ltibia 4.1948
lfoot 0.090761 6.03829
ltoes 53.5769
282
root 9.30988 18.2586 -33.4134 290.064 -82.196 -285.79
lowerback -3.88426 -0.647126 4.39174
upperback -3.52268 -1.03835 0.407256
thorax -1.51829 -0.634577 -2.06608
lowerneck -0.530976 1.82943 -1.03144
upperneck -0.775863 2.4084 -3.00183
head -0.122497 1.20145 -0.739285
rclavicle -1.15295e-014 3.81667e-014
rhumerus -11.3808 -31.9204 -5.87661
rradius 20.6347
rwrist 16.8113
rhand -7.09502 -50.6814
rfingers 7.12502
rthumb 18.7794 -79.7949
lclavicle -1.15295e-014 3.81667e-014
lhumerus 4.91774 10.2033 4.47056
lradius 21.4416
lwrist 7.79488
lhand -8.38279 -5.41469
lfingers 7.12502
lthumb 17.5405 23.814
rfemur 8.69716 18.619 9.79263
rtibia -3.65063
rfoot -29.6351 -31.1411
rtoes 14.627
lfemur 1.43455 -0.83599 -2.89005
ltibia 4.00425
lfoot -0.648183 5.83644
ltoes 52.8958
283
root 9.3205 18.2594 -33.4249 291.913 -82.5556 -287.628
lowerback -3.79523 -0.635697 5.07925
upperback -3.50783 -1.03572 0.612438
thorax -1.56443 -0.646493 -2.23799
lowerneck -0.457821 1.86476 -1.01297
upperneck -0.963984 2.44517 -3.18521
head -0.188625 1.22245 -0.800818
rclavicle 1.09332e-014 -4.77083e-015
rhumerus -11.2729 -32.1175 -5.84731
rradius 20.7487
rwrist 16.4879
rhand -7.47814 -50.4589
rfingers 7.12502
rthumb 18.4109 -79.6076
lclavicle 1.09332e-014 -4.77083e-015
lhumerus 4.963 10.4776 4.57224
lradius 21.4145
lwrist 7.38726
lhand -8.42525 -5.58381
lfingers 7.12502
lthumb 17.4996 23.6485
rfemur 8.80656 19.2416 10.5513
rtibia -3.72091
rfoot -30.351 -31.5027
rtoes 15.3879
lfemur 1.32098 -0.7216 -1.99296
ltibia 3.81214
lfoot -1.87435 5.67156
ltoes 53.5594
284
root 9.3271 18.2597 -33.4334 292.765 -82.5866 -288.51
lowerback -3.70417 -0.658722 5.39054
upperback -3.47926 -1.06833 0.751696
thorax -1.59301 -0.667903 -2.26794
lowerneck -0.442904 1.86697 -0.848918
upperneck -0.953831 2.44014 -3.7147
head -0.179731 1.21835 -0.991734
rclavicle -7.25564e-015 4.77083e-015
rhumerus -11.0001 -32.4663 -5.9037
rradius 20.8074
rwrist 16.3854
rhand -7.86185 -50.2114
rfingers 7.12502
rthumb 18.0418 -79.3946
lclavicle -7.25564e-015 4.77083e-015
lhumerus 4.82464 10.1675 4.48421
lradius 21.4759
lwrist 7.6619
lhand -8.62587 -5.66845
lfingers 7.12502
lthumb 17.3065 23.581
rfemur 8.95831 19.5382 10.7931
rtibia -3.83069
rfoot -30.7547 -31.728
rtoes 15.5066
lfemur 1.33329 -0.564763 -1.59774
ltibia 3.54841
lfoot -3.6434 5.32589
ltoes 54.5569
285
root 9.33196 18.2596 -33.4402 292.923 -82.2505 -288.685
lowerback -3.6711 -0.6946 5.30928
upperback -3.44187 -1.11167 0.767913
thorax -1.57388 -0.685858 -2.20657
lowerneck -0.339557 1.85457 -0.767986
upperneck -1.05507 2.41195 -4.05554
head -0.223092 1.20593 -1.11332
rclavicle -8.84592e-015 0
rhumerus -10.7854 -32.5256 -5.93792
rradius 20.846
rwrist 16.1492
rhand -7.93674 -50.1725
rfingers 7.12502
rthumb 17.9697 -79.3623
lclavicle -8.84592e-015 0
lhumerus 4.81231 10.0524 4.423
lradius 21.4983
lwrist 7.77792
lhand -8.476 -5.58033
lfingers 7.12502
lthumb 17.4508 23.6564
rfemur 9.14022 19.7915 10.56
rtibia -3.97784
rfoot -31.3019 -31.8201
rtoes 16.2354
lfemur 1.34671 -0.71795 -1.69896
ltibia 3.29717
lfoot -5.79318 4.70921
ltoes 54.8492
286
root 9.33645 18.2616 -33.4455 293.225 -81.8798 -289.013
lowerback -3.62837 -0.740537 5.17898
upperback -3.40307 -1.16646 0.765841
thorax -1.55862 -0.708674 -2.13669
lowerneck -0.215595 1.87496 -0.634346
upperneck -1.26229 2.42333 -4.3488
head -0.301855 1.2156 -1.23081
rclavicle -8.44835e-015 -2.70347e-014
rhumerus -10.667 -32.1925 -5.98605
rradius 20.9906
rwrist 15.4857
rhand -7.85767 -50.5096
rfingers 7.12502
rthumb 18.0458 -79.6924
lclavicle -8.44835e-015 -2.70347e-014
lhumerus 4.89861 10.2892 4.46903
lradius 21.4313
lwrist 7.49997
lhand -8.31656 -5.66679
lfingers 7.12502
lthumb 17.6042 23.5562
rfemur 9.33128 20.0249 10.3119
rtibia -4.11831
rfoot -31.8084 -31.9589
rtoes 17.0762
lfemur 1.35466 -0.850106 -1.80714
ltibia 3.05968
lfoot -7.81894 4.40835
ltoes 54.3073
